# xmcd
#
# Track frame offsets: 
#        150
#        19977
#        35852
#        51182
#        65134
#        89393
#        107190
#        118736
#        138803
#        151268
#
# Disc length: 2287 seconds
#
# Revision: 0
# Processed by: cddbd v1.5.2PL0 Copyright (c) Steve Scherf et al.
# Submitted via: ExactAudioCopyFreeDBPlugin 1.0
#
DISCID=8d08ed0a
DTITLE=Chris Hillman - Clear Sailin'
DYEAR=1977
DGENRE=Country
TTITLE0=Nothing Get's Through
TTITLE1=Fallen Favorite
TTITLE2=Quits
TTITLE3=Hot Dusty Roads
TTITLE4=Heartbreaker
TTITLE5=Played The Fool
TTITLE6=Lucky In love
TTITLE7=Rollin' And Tumblin'
TTITLE8=Ain't That Peculiar
TTITLE9=Clear Sakin'
EXTD=
EXTT0=
EXTT1=
EXTT2=
EXTT3=
EXTT4=
EXTT5=
EXTT6=
EXTT7=
EXTT8=
EXTT9=
PLAYORDER=
